<svg width="975" height="488" viewBox="0 0 975 488" fill="none" xmlns="http://www.w3.org/2000/svg">
<mask id="mask0_22_71" style="mask-type:luminance" maskUnits="userSpaceOnUse" x="572" y="0" width="403" height="402">
<path d="M572.22 0H974.111V401.896H572.22V0Z" fill="white"/>
</mask>
<g mask="url(#mask0_22_71)">
<mask id="mask1_22_71" style="mask-type:luminance" maskUnits="userSpaceOnUse" x="572" y="0" width="403" height="402">
<path d="M773.168 0C662.184 0 572.22 89.9688 572.22 200.948C572.22 311.927 662.184 401.896 773.168 401.896C884.147 401.896 974.111 311.927 974.111 200.948C974.111 89.9688 884.147 0 773.168 0Z" fill="white"/>
</mask>
<g mask="url(#mask1_22_71)">
<mask id="mask2_22_71" style="mask-type:luminance" maskUnits="userSpaceOnUse" x="571" y="-1" width="404" height="405">
<path d="M974.189 -0.984375H571.522V403.016H974.189V-0.984375Z" fill="white"/>
</mask>
<g mask="url(#mask2_22_71)">
<mask id="mask3_22_71" style="mask-type:luminance" maskUnits="userSpaceOnUse" x="572" y="0" width="403" height="402">
<path d="M572.22 0H974.111V401.896H572.22V0Z" fill="white"/>
</mask>
<g mask="url(#mask3_22_71)">
<mask id="mask4_22_71" style="mask-type:luminance" maskUnits="userSpaceOnUse" x="572" y="0" width="403" height="402">
<path d="M773.168 0C662.184 0 572.22 89.9688 572.22 200.948C572.22 311.927 662.184 401.896 773.168 401.896C884.147 401.896 974.111 311.927 974.111 200.948C974.111 89.9688 884.147 0 773.168 0Z" fill="white"/>
</mask>
<g mask="url(#mask4_22_71)">
<path d="M572.22 0H974.111V401.896H572.22V0Z" fill="#39CAFF"/>
</g>
</g>
</g>
</g>
</g>
<path d="M898.004 323.439H828.713L773.108 243.314L717.525 323.439H651.088L740.046 196.835L665.9 88.21H729.775L773.108 152.356L816.463 88.21H883.171L806.192 196.835L898.004 323.439Z" fill="#242325"/>
<mask id="mask5_22_71" style="mask-type:luminance" maskUnits="userSpaceOnUse" x="83" y="31" width="593" height="362">
<path d="M675.522 31.0156H83.522V392.349H675.522V31.0156Z" fill="white"/>
</mask>
<g mask="url(#mask5_22_71)">
<path d="M314.05 158.363V209.383C307.967 237.331 294.66 258.477 274.133 272.821C253.618 287.17 230.722 294.342 205.446 294.342C173.696 294.342 146.654 282.467 124.321 258.717C101.998 234.956 90.8418 206.253 90.8418 172.613C90.8418 138.404 101.764 109.519 123.613 85.946C145.472 62.3783 172.748 50.5918 205.446 50.5918C243.639 50.5918 273.852 63.998 296.092 90.8001L261.029 129.279C248.488 109.144 230.998 99.071 208.571 99.071C192.04 99.071 177.93 106.248 166.238 120.592C154.555 134.941 148.717 152.279 148.717 172.613C148.717 192.571 154.555 209.633 166.238 223.8C177.93 237.956 192.04 245.029 208.571 245.029C222.248 245.029 234.175 240.899 244.342 232.633C254.519 224.357 259.613 213.378 259.613 199.696H205.446V158.363H314.05Z" fill="#242325"/>
<path d="M463.688 223.925H357.646C357.646 234.19 360.964 241.795 367.604 246.737C374.255 251.685 381.484 254.154 389.292 254.154C397.458 254.154 403.917 253.065 408.667 250.883C413.417 248.69 418.833 244.362 424.917 237.904L461.417 256.154C446.208 281.612 420.927 294.341 385.583 294.341C363.526 294.341 344.609 286.795 328.833 271.696C313.068 256.586 305.188 238.383 305.188 217.091C305.188 195.8 313.068 177.56 328.833 162.362C344.609 147.154 363.526 139.55 385.583 139.55C408.76 139.55 427.625 146.253 442.167 159.654C456.708 173.045 463.979 192.19 463.979 217.091C463.979 220.508 463.88 222.789 463.688 223.925ZM359.062 195.987H414.646C413.505 188.394 410.51 182.55 405.667 178.466C400.818 174.383 394.594 172.341 387 172.341C378.635 172.341 371.984 174.529 367.042 178.904C362.094 183.269 359.438 188.961 359.062 195.987Z" fill="#242325"/>
<path d="M465.085 290.071V143.821H515.544V159.216H516.106C529.231 146.107 543.2 139.55 558.023 139.55C565.241 139.55 572.419 140.503 579.544 142.404C586.669 144.31 593.507 147.253 600.064 151.237C606.632 155.227 611.96 160.878 616.044 168.196C620.127 175.519 622.169 184.024 622.169 193.716V290.071H571.71V207.404C571.71 199.795 569.283 193.144 564.439 187.446C559.59 181.737 553.273 178.883 545.481 178.883C537.882 178.883 530.991 181.836 524.814 187.737C518.632 193.628 515.544 200.185 515.544 207.404V290.071H465.085Z" fill="#242325"/>
</g>
<path d="M53.6042 248.198V436.386H134.583V483.427H0V248.198H53.6042Z" fill="#242325"/>
<path d="M287.117 417.282H181.055C181.055 427.547 184.378 435.151 191.034 440.094C197.685 445.042 204.909 447.511 212.701 447.511C220.878 447.511 227.346 446.422 232.096 444.24C236.846 442.047 242.263 437.714 248.346 431.24L284.846 449.49C269.638 474.964 244.352 487.698 208.992 487.698C186.951 487.698 168.039 480.146 152.263 465.032C136.482 449.922 128.596 431.729 128.596 410.448C128.596 389.157 136.482 370.907 152.263 355.698C168.039 340.49 186.951 332.886 208.992 332.886C232.185 332.886 251.055 339.589 265.596 352.99C280.138 366.396 287.409 385.542 287.409 410.427C287.409 413.86 287.31 416.146 287.117 417.282ZM182.471 389.344H238.076C236.935 381.735 233.94 375.886 229.096 371.802C224.247 367.719 218.024 365.677 210.43 365.677C202.055 365.677 195.393 367.865 190.451 372.24C185.518 376.604 182.857 382.302 182.471 389.344Z" fill="#242325"/>
<path d="M299.09 465.323C285.408 450.407 278.569 432.115 278.569 410.448C278.569 388.771 285.408 370.422 299.09 355.407C312.783 340.396 330.178 332.886 351.277 332.886C370.663 332.886 386.632 338.969 399.173 351.136V337.157H449.632V483.427H399.736V466.886H399.173C386.632 480.761 370.663 487.698 351.277 487.698C330.178 487.698 312.783 480.24 299.09 465.323ZM342.007 385.636C335.449 392.094 332.173 400.365 332.173 410.448C332.173 420.521 335.303 428.74 341.569 435.115C347.845 441.479 356.116 444.657 366.382 444.657C376.267 444.657 384.392 441.427 390.757 434.969C397.132 428.5 400.319 420.318 400.319 410.427C400.319 400.36 397.033 392.094 390.465 385.636C383.908 379.167 375.882 375.927 366.382 375.927C356.684 375.927 348.559 379.167 342.007 385.636Z" fill="#242325"/>
<path d="M471.873 465.323C458.19 450.406 451.352 432.115 451.352 410.448C451.352 388.771 458.19 370.422 471.873 355.406C485.565 340.396 502.961 332.885 524.06 332.885C543.446 332.885 559.414 338.969 571.956 351.135V238.219H622.414V483.427H572.518V466.885H571.956C559.414 480.76 543.446 487.698 524.06 487.698C502.961 487.698 485.565 480.24 471.873 465.323ZM514.789 385.635C508.232 392.094 504.956 400.365 504.956 410.448C504.956 420.521 508.086 428.74 514.352 435.115C520.628 441.479 528.899 444.656 539.164 444.656C549.05 444.656 557.175 441.427 563.539 434.969C569.914 428.5 573.102 420.318 573.102 410.427C573.102 400.359 569.815 392.094 563.248 385.635C556.69 379.167 548.664 375.927 539.164 375.927C529.466 375.927 521.341 379.167 514.789 385.635Z" fill="#242325"/>
<path d="M776.092 337.156L703.676 444.927H770.405V483.427H618.988L691.426 375.656H630.967V337.156H776.092Z" fill="#242325"/>
</svg>
